<?xml version="1.0" encoding="UTF-8"?>
<svg width="59px" height="89px" viewBox="0 0 59 89" version="1.1" xmlns="http://www.w3.org/2000/svg" xmlns:xlink="http://www.w3.org/1999/xlink">
    <title>4830C9A6-3CDC-477A-A670-9858E71C55CA</title>
    <g id="FINAL" stroke="none" stroke-width="1" fill="none" fill-rule="evenodd">
        <g id="Happy-Hunny-Landing-Phase1-Thank-You_mobile" transform="translate(-87.000000, -120.000000)">
            <g id="Game-|-Complete-|-Condensed" transform="translate(24.000000, 120.000000)">
                <g id="card-2-complete-mobile" transform="translate(63.000000, 0.000000)">
                    <rect id="Rectangle-Copy" stroke="#FFFFFF" stroke-width="2" x="1" y="1" width="57" height="86.0597015" rx="12"></rect>
                    <path d="M29.9383998,41.8251595 C28.3500999,43.488283 26.57134,44.3793635 24.6803448,45.3214601 C21.0105896,47.1580382 17.2422034,45.4030858 16.3987379,44.2773314 C14.8954648,42.2638976 14.8138391,38.6927735 15.9327913,35.3359169 C16.832613,32.6897173 18.331814,30.2872711 20.3133702,28.3161073 C21.0525203,27.5544818 21.9007076,26.9068793 22.8301624,26.3945024 C25.4353824,24.9966624 28.0406025,24.7959992 30.526785,26.8400427 C30.6545747,26.7267207 30.7687145,26.5988841 30.8668921,26.4591227 C31.4110634,25.4149941 32.2273203,24.8028014 33.4381014,25.0068656 C34.6224304,25.1676966 35.5497759,26.106215 35.6964123,27.292385 C35.8111604,28.2196257 35.84076,29.1554261 35.7848401,30.088065 C35.7644337,31.9994667 35.5297598,33.9346758 35.7202198,35.8256711 C35.9753001,38.3730729 37.2847122,39.3661855 39.8321141,39.3763887 C40.7299967,39.3763887 41.6312804,39.342378 42.529163,39.3763887 C43.8385752,39.4444101 44.4133561,43.6583366 43.0291204,44.6990641 C40.5837507,46.5322412 35.0774174,46.5322412 31.9994486,44.1344864 C31.2750206,43.4440691 30.6492236,42.6312133 29.9383998,41.8251595 Z M20.643274,38.2880461 C20.4222044,40.2436617 21.5411566,40.7912341 23.1328576,40.1382285 C25.7584841,39.0634902 27.7379072,37.3731582 28.8942712,34.6523017 C29.0001803,34.4501726 29.0138143,34.2121984 28.9316829,33.9992962 C28.2004528,32.2681513 25.6394467,31.3566644 24.1701842,32.4552101 C22.2474577,33.8363778 20.9731949,35.9437651 20.643274,38.2880461 Z" id="Shape" fill="#000000" fill-rule="nonzero"></path>
                </g>
            </g>
        </g>
    </g>
</svg>