<?xml version="1.0" encoding="UTF-8"?>
<svg width="59px" height="89px" viewBox="0 0 59 89" version="1.1" xmlns="http://www.w3.org/2000/svg" xmlns:xlink="http://www.w3.org/1999/xlink">
    <title>415B7D5E-0BD7-4529-8EC2-4FADBB2638B6</title>
    <g id="FINAL" stroke="none" stroke-width="1" fill="none" fill-rule="evenodd">
        <g id="Happy-Hunny-Landing-Phase1-Thank-You_mobile" transform="translate(-24.000000, -120.000000)">
            <g id="card-1-complete-mobile" transform="translate(24.000000, 120.000000)">
                <rect id="Rectangle" stroke="#FFFFFF" stroke-width="2" x="1" y="1" width="57" height="86.0597015" rx="12"></rect>
                <path d="M23.1779873,29.4656691 C24.0588646,28.8398721 24.7866937,28.2684923 25.5587367,27.7855403 C29.1230586,25.5714433 32.4867174,26.2516574 34.5987822,29.8635944 C35.7143334,31.774996 36.9387188,38.8866346 37.6597457,41.0055015 C38.4351898,43.2876199 39.0541847,45.5833425 40.7479178,47.4675356 C42.0811375,48.9538034 40.6662921,51.5488203 38.4521952,51.9637509 C36.707446,52.2766494 35.1021407,51.3413549 34.343702,49.3925415 C33.2757658,46.6580808 31.7010701,38.9784635 30.6943532,36.2133931 C30.4562783,35.5603876 30.2624173,34.8869756 29.9733263,34.2577775 C29.4053475,33.0367932 28.177561,32.8701408 27.3442987,33.9176705 C26.9799694,34.4098653 26.7027332,34.9608868 26.5246407,35.5467833 C25.5995495,38.3424633 24.7254744,41.1517476 23.8207896,43.9508286 C23.6406674,44.5781874 23.4132788,45.1909998 23.1405755,45.7840057 C22.7360382,46.7179437 21.7720641,47.28118 20.7598261,47.1750435 C19.7292038,47.1412514 18.862718,46.3910534 18.681772,45.3758772 C18.4259513,44.2205128 18.2723104,43.0448753 18.2226275,41.8625713 C18.0367023,32.2103331 17.8745846,22.5569611 17.7362744,12.9024555 C17.7249472,12.3313845 17.7785749,11.7608768 17.8961247,11.2019202 C18.159216,9.98669958 19.278565,9.15190625 20.5183501,9.24630466 C21.7172611,9.30642298 22.6838775,10.2497123 22.7732599,11.4467973 C22.8922974,12.7868191 22.9025006,14.1438463 22.9195059,15.4906702 C22.9739231,19.7862223 23.0079338,24.0817744 23.0555488,28.3739255 C23.0589498,28.686824 23.1235702,28.9963214 23.1779873,29.4656691 Z" id="Path" fill="#000000" fill-rule="nonzero"></path>
            </g>
        </g>
    </g>
</svg>