<?xml version="1.0" encoding="UTF-8"?>
<svg width="59px" height="89px" viewBox="0 0 59 89" version="1.1" xmlns="http://www.w3.org/2000/svg" xmlns:xlink="http://www.w3.org/1999/xlink">
    <title>FCD649C8-636D-46DF-80BF-EDF044CBFC65</title>
    <g id="FINAL" stroke="none" stroke-width="1" fill="none" fill-rule="evenodd">
        <g id="Happy-Hunny-Landing-Phase1-Thank-You_mobile" transform="translate(-87.000000, -216.000000)">
            <g id="Game-|-Complete-|-Condensed" transform="translate(24.000000, 120.000000)">
                <g id="card-7-complete-mobile" transform="translate(63.000000, 96.888889)">
                    <rect id="Rectangle-Copy-6" stroke="#FFFFFF" stroke-width="2" x="1" y="1" width="57" height="86.0597015" rx="12"></rect>
                    <path d="M33.124123,25.4416364 C33.1581337,23.5166305 33.2941765,21.3603518 34.4301341,20.9114105 C35.5660916,20.4624691 36.8721027,20.7481591 37.2802312,21.7684802 C38.5114187,24.8294437 39.0419857,30.628269 37.9876539,35.5564203 C37.4019648,38.6578217 35.5541816,41.3765267 32.886048,43.062583 C29.4339614,45.2596746 25.9308587,44.6134712 23.4616815,41.3620477 C21.7305366,39.0867315 20.591178,36.5223243 20.4925469,33.6892325 C20.3633062,30.0228785 20.5503651,30.0126753 20.6217876,26.3395191 C20.6433569,25.9711932 20.7142792,25.6074304 20.832654,25.2579786 C21.2577878,23.8261279 22.1930822,23.0710903 23.4616815,23.1289085 C24.8539334,23.1194502 25.9922733,24.2365128 26.0090834,25.6286953 C25.6689763,35.2129121 26.2777679,37.6582819 28.8795869,37.855544 C30.2400151,37.8895547 31.4337909,37.3419823 31.9983686,36.073383 C32.4798053,35.0380661 32.7679624,33.9234745 32.8486363,32.7845478 C32.933663,30.9581729 33.0935133,27.298621 33.124123,25.4416364 Z" id="Path" fill="#000000" fill-rule="nonzero"></path>
                </g>
            </g>
        </g>
    </g>
</svg>