<?xml version="1.0" encoding="UTF-8"?>
<svg width="59px" height="89px" viewBox="0 0 59 89" version="1.1" xmlns="http://www.w3.org/2000/svg" xmlns:xlink="http://www.w3.org/1999/xlink">
    <title>96F2244F-7C07-43AF-9754-C75B6247B6D8</title>
    <g id="FINAL" stroke="none" stroke-width="1" fill="none" fill-rule="evenodd">
        <g id="Happy-Hunny-Landing-Phase1-Thank-You_mobile" transform="translate(-276.000000, -216.000000)">
            <g id="Game-|-Complete-|-Condensed" transform="translate(24.000000, 120.000000)">
                <g id="card-10-complete-mobile" transform="translate(252.000000, 96.888889)">
                    <rect id="Rectangle-Copy-9" stroke="#FFFFFF" stroke-width="2" x="1" y="1" width="57" height="86.0597015" rx="12"></rect>
                    <path d="M38.1541904,57.1940312 C37.9467251,58.6598926 37.7834737,59.9931122 37.5658052,61.3161287 C36.5080723,67.6829328 33.9538683,73.2912981 28.9781021,77.5630427 C27.8221083,78.5338702 26.5130641,79.3061947 25.1042827,79.8485621 C22.0127096,81.0593433 19.2578424,80.035621 17.4586761,77.23654 C14.3773062,72.4410305 14.6017768,64.9926859 18.1388902,60.0441283 C21.4821426,55.3608541 25.8695236,52.1060296 31.5629157,50.7524035 C31.9710442,50.6571735 32.5832369,50.1844247 32.5832369,49.8681252 C32.7022743,46.9772152 32.7158786,44.0863052 32.7430872,41.1885931 C32.704126,40.9148249 32.6368786,40.6458353 32.542424,40.3859405 C31.8928195,40.8620903 31.3486483,41.277021 30.7908727,41.6715451 C27.2299518,44.1985406 23.4343571,43.5251286 21.0400034,39.8587745 C18.8293075,36.457704 17.7885799,32.6451039 17.1899915,28.6930599 C16.995361,27.4402523 16.8885338,26.175373 16.8702909,24.9076684 C16.8498845,23.1901277 17.7511682,22.1391969 19.2136285,21.9623413 C20.7080111,21.825338 22.0650603,22.8376233 22.3596188,24.3090799 C22.7371376,25.900781 22.9071911,27.543498 23.335726,29.1181937 C23.9241112,31.2846757 24.5771168,33.4443555 25.3763684,35.5394149 C26.1212028,37.4984316 27.719706,37.7671161 29.0257171,36.1346023 C29.7891054,35.1825051 30.3409819,34.0787521 30.6446266,32.8967831 C31.2058033,30.5568466 31.4778889,28.1352843 31.9234292,25.7749413 C32.0898403,24.8095835 32.3472007,23.8621327 32.6920711,22.9452506 C33.3722852,21.2447154 34.6204781,20.5066831 36.0931417,20.8093783 C37.5658052,21.1120736 38.2800301,22.0405659 38.3072386,24.0063847 C38.4194739,32.1893604 38.5487146,40.3723362 38.569121,48.5553119 C38.569121,49.9735584 38.8310035,50.8816442 40.2186403,51.5142433 C41.196876,52.0239315 42.0776216,52.7020481 42.8204592,53.5174739 C43.8407804,54.5377951 43.9360104,55.8744158 43.2728016,56.8913359 C42.5619779,57.9830795 41.7355177,58.1939459 40.1472178,57.7245982 C39.5452283,57.5409404 38.9194313,57.3946943 38.1541904,57.1940312 Z M32.1989159,56.8879348 C32.0069616,56.8421801 31.811079,56.8148477 31.6139318,56.8063091 C31.3289634,56.8214008 31.0463122,56.86585 30.7704663,56.9389509 C25.5362187,58.5068444 22.0977363,61.9419257 20.7645167,67.2067829 C20.3699925,68.7746764 20.6318749,70.635062 21.0298002,72.2505705 C21.6045811,74.5803038 23.3935442,75.1040687 25.3525609,73.7266351 C26.029678,73.2645118 26.6221817,72.6892654 27.1041122,72.0260999 C28.1243737,70.6489481 29.0341603,69.1932895 29.8249686,67.6727295 C31.4778889,64.2886643 32.154702,60.6631231 32.1989159,56.8879348 Z" id="Shape" fill="#000000" fill-rule="nonzero"></path>
                </g>
            </g>
        </g>
    </g>
</svg>